<?xml version="1.0" encoding="UTF-8"?>
<svg version="1.1" xmlns="http://www.w3.org/2000/svg" width="501" height="501">
<path d="M0 0 C165.33 0 330.66 0 501 0 C501 165.33 501 330.66 501 501 C335.67 501 170.34 501 0 501 C0 335.67 0 170.34 0 0 Z " fill="#FEFEFE" transform="translate(0,0)"/>
<path d="M0 0 C24.42 0 48.84 0 74 0 C74 82.83 74 165.66 74 251 C21.86 251 -30.28 251 -84 251 C-81.75203957 240.88417807 -81.75203957 240.88417807 -79.94140625 236.00390625 C-79.55533203 234.95009766 -79.16925781 233.89628906 -78.77148438 232.81054688 C-78.37251953 231.73869141 -77.97355469 230.66683594 -77.5625 229.5625 C-75.14915843 223.03899758 -72.81040564 216.5446683 -70.86499023 209.8659668 C-68.81415165 203.070936 -66.50097715 196.3557777 -64.25 189.625 C-63.98033417 188.81722107 -63.71066833 188.00944214 -63.43283081 187.17718506 C-60.5270781 178.47532179 -57.61789579 169.77572458 -54.5625 161.125 C-51.28646189 151.84937179 -48.06851611 142.55432721 -44.875 133.25 C-44.5993219 132.44705505 -44.3236438 131.64411011 -44.03961182 130.8168335 C-38.95744995 115.99136851 -34.08533693 101.10106882 -29.31396484 86.17285156 C-29.0544957 85.36541504 -28.79502655 84.55797852 -28.5276947 83.72607422 C-28.04984207 82.23876944 -27.57473739 80.75057695 -27.10328674 79.26123047 C-25.88270651 75.46905789 -24.52858976 71.77113078 -23.02685547 68.08056641 C-21.05577055 63.22435531 -19.385582 58.31160593 -17.79296875 53.3203125 C-17.50448563 52.42746552 -17.2160025 51.53461853 -16.91877747 50.61471558 C-16.00506619 47.78585671 -15.09584093 44.95558741 -14.1875 42.125 C-13.28953057 39.33023194 -12.39040351 36.53585629 -11.48835754 33.74240112 C-10.93146871 32.01753851 -10.37671985 30.29198215 -9.82499695 28.56546021 C-6.73066273 18.97457143 -3.33282682 9.52236233 0 0 Z " fill="#1E409A" transform="translate(310,137)"/>
<path d="M0 0 C29 0 29 0 39 5 C44.737176 10.737176 47.20588947 14.93374922 47.276811 23.25684047 C47.2737138 24.07658201 47.2706166 24.89632356 47.26742554 25.74090576 C47.27195665 26.6208751 47.27648776 27.50084445 47.28115618 28.40747952 C47.29381599 31.3560163 47.29217878 34.30436874 47.29052734 37.25292969 C47.29651166 39.36711871 47.30331698 41.48130555 47.31088257 43.5954895 C47.328561 49.33942785 47.33323877 55.08330663 47.33451414 60.82726955 C47.33641325 65.62336203 47.34377105 70.41944064 47.35085833 75.21552777 C47.36714739 86.53301525 47.37202686 97.8504709 47.37060547 109.16796875 C47.36940432 120.83829621 47.39049966 132.50843864 47.4220928 144.17871928 C47.44825657 154.20096733 47.4589727 164.22315497 47.45769465 174.24543691 C47.45718499 180.23000289 47.46287047 186.21440452 47.48405075 192.19893646 C47.50343431 197.8296562 47.50355654 203.46005483 47.48901749 209.09078598 C47.48692836 211.1543131 47.49163643 213.21786031 47.5037384 215.281353 C47.5192223 218.10499716 47.50986184 220.92753849 47.49447632 223.75115967 C47.50476344 224.56197833 47.51505057 225.37279699 47.52564943 226.20818591 C47.44700603 232.76850133 45.80605239 238.89484726 41.32126749 243.85767055 C29.47641257 254.85834683 16.19323886 252 0 252 C0 168.84 0 85.68 0 0 Z " fill="#1D409A" transform="translate(454,137)"/>
<path d="M0 0 C35.64 0 71.28 0 108 0 C105.53104846 9.87580615 103.04215858 19.63882939 100.125 29.375 C99.60619263 31.11898071 99.60619263 31.11898071 99.0769043 32.89819336 C96.88054038 40.22566099 94.54628225 47.4909154 92.07202148 54.72851562 C90.43210105 59.56992085 89.01125864 64.43855324 87.6875 69.375 C85.66303239 76.88949325 83.34386016 84.28700644 80.9375 91.6875 C77.14264568 103.36378781 73.4771601 115.07539952 69.875 126.8125 C69.49062271 128.06468323 69.49062271 128.06468323 69.09848022 129.34216309 C65.0445793 142.55499629 61.00890306 155.77344306 57 169 C56.34 169 55.68 169 55 169 C41.74105616 130.75911755 41.74105616 130.75911755 36.44921875 113.02197266 C35.01730928 108.22977338 33.50723719 103.5222268 31.70605469 98.85595703 C30.51679588 95.72983481 29.48314202 92.55124159 28.4375 89.375 C27.90767253 87.77600175 27.37771486 86.17704664 26.84765625 84.578125 C26.5552002 83.69447266 26.26274414 82.81082031 25.96142578 81.90039062 C24.51837966 77.54706712 23.06700617 73.19653049 21.61572266 68.84594727 C20.77978056 66.33894344 19.94465123 63.83168614 19.11083984 61.32397461 C16.959415 54.8565989 14.79798644 48.39289897 12.61138916 41.93731689 C11.52363471 38.72386199 10.4406206 35.50881804 9.35797119 32.29364014 C8.83542463 30.74588713 8.31071062 29.19886388 7.78363037 27.65264893 C7.0388069 25.46694493 6.30192659 23.27869317 5.56640625 21.08984375 C5.14302979 19.84066162 4.71965332 18.59147949 4.28344727 17.30444336 C2.58553123 11.60994884 1.3361686 5.79006392 0 0 Z " fill="#1D4099" transform="translate(143,137)"/>
<path d="M0 0 C2.31393961 2.31393961 2.7156005 3.77019889 3.6875 6.875 C5.48269542 12.44675468 7.37017041 17.97778457 9.3125 23.5 C9.61534912 24.36318848 9.91819824 25.22637695 10.23022461 26.11572266 C11.42661674 29.52492197 12.6248475 32.93347279 13.82373047 36.34179688 C17.67576149 47.29637867 21.4767328 58.26805635 25.25 69.25 C25.48127594 69.92287048 25.71255188 70.59574097 25.95083618 71.28900146 C28.39356682 78.39641565 30.83238284 85.50513615 33.25979614 92.61779785 C34.24693025 95.50928868 35.23597941 98.40012273 36.22521973 101.29089355 C36.693063 102.65978613 37.15997085 104.02899882 37.62585449 105.39855957 C39.95694546 112.25083735 42.36257835 119.03274019 45.10253906 125.73217773 C46.26738539 128.67566456 47.26299566 131.65946431 48.24072266 134.66943359 C49.07589477 137.23295547 49.94808195 139.78223094 50.82421875 142.33203125 C51.44535929 144.15883826 52.06645264 145.98566131 52.6875 147.8125 C53.00783203 148.73998047 53.32816406 149.66746094 53.65820312 150.62304688 C53.96048828 151.51701172 54.26277344 152.41097656 54.57421875 153.33203125 C54.84838623 154.13358643 55.12255371 154.9351416 55.4050293 155.76098633 C56 158 56 158 56 162 C19.37 162 -17.26 162 -55 162 C-53.67963318 155.39816589 -52.634761 150.73453846 -50.12841797 144.79052734 C-47.81606768 139.07218813 -45.98893529 133.16995442 -44.0625 127.3125 C-43.64156366 126.03961839 -43.22034074 124.76683152 -42.79882812 123.49414062 C-41.95633753 120.94901269 -41.11466399 118.4036175 -40.27392578 115.85791016 C-40.06503723 115.22548401 -39.85614868 114.59305786 -39.64093018 113.94146729 C-39.20680183 112.6264317 -38.77301488 111.31128338 -38.33953857 109.99603271 C-37.68493322 108.01116438 -37.02820268 106.02700945 -36.37109375 104.04296875 C-35.98751709 102.88176514 -35.60394043 101.72056152 -35.20874023 100.52416992 C-34.35716581 98.04134286 -33.47951342 95.58928955 -32.55053711 93.13623047 C-30.8774196 88.7153516 -29.34270019 84.25200866 -27.8203125 79.77734375 C-27.52567108 78.91420059 -27.23102966 78.05105743 -26.92745972 77.16175842 C-26.30670218 75.34248943 -25.68652292 73.52302302 -25.06689453 71.70336914 C-24.13576458 68.96911014 -23.20281017 66.23547927 -22.26953125 63.50195312 C-18.3098138 51.89519645 -14.38745311 40.27696806 -10.5625 28.625 C-9.08271811 24.19411022 -7.54356895 19.78398653 -6 15.375 C-5.62597046 14.29919678 -5.62597046 14.29919678 -5.24438477 13.20166016 C-3.6659189 8.71527604 -1.91896537 4.35193933 0 0 Z " fill="#1D4099" transform="translate(116,226)"/>
<path d="M0 0 C0.68318802 -0.00014603 1.36637604 -0.00029205 2.07026672 -0.0004425 C4.32658065 0.0002537 6.58281184 0.00803243 8.83911133 0.01586914 C10.40424047 0.01773436 11.96937019 0.01915777 13.53450012 0.02015686 C17.65267551 0.02397387 21.7708156 0.03379721 25.88897705 0.04486084 C30.09175133 0.05509248 34.29453131 0.05965824 38.49731445 0.06469727 C46.74277336 0.0754202 54.98820358 0.09248685 63.23364258 0.11352539 C62.25478118 7.543699 62.25478118 7.543699 61.08544922 11.10400391 C60.85717438 11.80853699 60.62889954 12.51307007 60.39370728 13.23895264 C60.14623749 13.98260071 59.8987677 14.72624878 59.64379883 15.49243164 C59.25349991 16.68826874 59.25349991 16.68826874 58.85531616 17.90826416 C58.00794731 20.49942315 57.1522483 23.08774126 56.29614258 25.67602539 C55.70661526 27.47170593 55.1175076 29.2675243 54.52880859 31.06347656 C53.05037875 35.56779841 51.56443155 40.06959354 50.07507324 44.5703125 C49.28400918 46.96129302 48.49439494 49.35274644 47.70532227 51.74438477 C46.36462341 55.80627229 45.01943667 59.86665313 43.67114258 63.92602539 C43.27870361 65.10817627 42.88626465 66.29032715 42.48193359 67.50830078 C40.81650833 72.49447652 39.11801855 77.45415717 37.26879883 82.37524414 C35.6116018 86.87491819 34.23477884 91.43233008 32.91333008 96.03930664 C30.07250006 105.91306741 26.72253836 115.5955856 23.35864258 125.30102539 C22.1133209 128.90932666 20.87147293 132.51880854 19.63208008 136.12915039 C19.33313843 136.99990707 19.03419678 137.87066376 18.72619629 138.76780701 C16.07032136 146.533855 13.55190781 154.33805791 11.18725586 162.19824219 C9.43877952 167.90838845 9.43877952 167.90838845 7.23364258 170.11352539 C3.36389593 159.05060263 -0.03986612 147.8779868 -3.26635742 136.61352539 C-5.86081573 127.55705987 -8.52252141 118.55217259 -11.59179688 109.64282227 C-14.68283956 100.58579841 -17.25218534 91.36647154 -19.87841797 82.16625977 C-20.38681658 80.41838618 -20.91994089 78.67635154 -21.52328491 76.9589386 C-23.77981034 70.25095866 -24.17745604 64.20109663 -24.09448242 57.15649414 C-24.09260925 56.05050369 -24.09073608 54.94451324 -24.08880615 53.80500793 C-24.08212514 51.48472036 -24.06829036 49.16444329 -24.04760742 46.84423828 C-24.01629476 43.29392011 -24.00661348 39.74404651 -24.00073242 36.19360352 C-23.99156713 33.93122831 -23.98119288 31.66885761 -23.96948242 29.40649414 C-23.96523254 28.34810837 -23.96098267 27.2897226 -23.956604 26.19926453 C-23.94699646 25.21086075 -23.93738892 24.22245697 -23.92749023 23.20410156 C-23.92066223 22.33935715 -23.91383423 21.47461273 -23.90679932 20.58366394 C-23.76070712 18.01414605 -23.32962192 15.62195403 -22.76635742 13.11352539 C-22.10635742 13.11352539 -21.44635742 13.11352539 -20.76635742 13.11352539 C-20.43635742 11.79352539 -20.10635742 10.47352539 -19.76635742 9.11352539 C-19.10635742 9.11352539 -18.44635742 9.11352539 -17.76635742 9.11352539 C-17.56010742 8.53602539 -17.35385742 7.95852539 -17.14135742 7.36352539 C-13.2286677 0.96094222 -6.8944826 -0.01237789 0 0 Z " fill="#1D4099" transform="translate(27.766357421875,136.886474609375)"/>
<path d="M0 0 C29 0 29 0 37 4 C37.495 5.98 37.495 5.98 38 8 C37.34 8 36.68 8 36 8 C36 7.01 36 6.02 36 5 C25.32777743 2.04355758 25.32777743 2.04355758 3 2 C3 83.84 3 165.68 3 250 C11.91 249.67 20.82 249.34 30 249 C29.67 249.66 29.34 250.32 29 251 C19.8239442 254.05868527 9.67241209 252 0 252 C0 168.84 0 85.68 0 0 Z " fill="#4D5FA1" transform="translate(454,137)"/>
<path d="M0 0 C0.33 0 0.66 0 1 0 C1 80.52 1 161.04 1 244 C-50.81 244 -102.62 244 -156 244 C-155.34 243.67 -154.68 243.34 -154 243 C-153.67 242.01 -153.34 241.02 -153 240 C-152.34 240.66 -151.68 241.32 -151 242 C-148.27270104 242.29963834 -148.27270104 242.29963834 -145.02694702 242.24050903 C-143.12100045 242.24464152 -143.12100045 242.24464152 -141.17654991 242.2488575 C-139.75490609 242.24176339 -138.33326316 242.23448759 -136.91162109 242.22705078 C-135.39951907 242.22643839 -133.88741648 242.22670461 -132.37531471 242.2277813 C-128.31659314 242.22823384 -124.25798888 242.21662077 -120.19929504 242.20256042 C-116.3943341 242.19119204 -112.58940206 242.19063536 -108.78442383 242.18920898 C-97.64793361 242.17870367 -86.51146533 242.1507815 -75.375 242.125 C-50.50125 242.08375 -25.6275 242.0425 0 242 C0 162.14 0 82.28 0 0 Z " fill="#1E3A8B" transform="translate(382,144)"/>
<path d="M0 0 C0.99 0 1.98 0 3 0 C3 0.66 3 1.32 3 2 C2.01 2.495 2.01 2.495 1 3 C0.67 3.99 0.34 4.98 0 6 C-0.66 6 -1.32 6 -2 6 C-2.0253547 13.8837007 -2.04286889 21.76739088 -2.05493164 29.65112305 C-2.05939552 32.33310101 -2.06635359 35.01505529 -2.07543945 37.69702148 C-2.08756853 41.55192746 -2.09324287 45.40679718 -2.09765625 49.26171875 C-2.10281754 50.46084396 -2.10797882 51.65996918 -2.11329651 52.89543152 C-2.11337204 54.01621597 -2.11344757 55.13700043 -2.11352539 56.29174805 C-2.115746 57.27547897 -2.11796661 58.2592099 -2.12025452 59.27275085 C-2.00226045 61.9487352 -1.59948333 64.39334338 -1 67 C-5.875 63.125 -5.875 63.125 -7 62 C-7.10422936 60.2003634 -7.13854102 58.396634 -7.14526367 56.59399414 C-7.15164352 55.43932144 -7.15802338 54.28464874 -7.16459656 53.09498596 C-7.16570938 51.83774216 -7.1668222 50.58049835 -7.16796875 49.28515625 C-7.17129715 48.00394394 -7.17462555 46.72273163 -7.17805481 45.4026947 C-7.18405192 42.6865047 -7.18589413 39.97034655 -7.18530273 37.25415039 C-7.1852011 33.76909408 -7.19885216 30.28424145 -7.21607494 26.79923344 C-7.22985066 23.48203767 -7.22928324 20.1648803 -7.23046875 16.84765625 C-7.23765427 15.59243668 -7.24483978 14.3372171 -7.25224304 13.04396057 C-7.24916641 11.88613571 -7.24608978 10.72831085 -7.24291992 9.53540039 C-7.24434494 8.51249405 -7.24576996 7.48958771 -7.24723816 6.4356842 C-7 4 -7 4 -5 2 C-4.01 2 -3.02 2 -2 2 C-1.34 1.34 -0.68 0.68 0 0 Z " fill="#E3E9F4" transform="translate(7,144)"/>
<path d="M0 0 C24.09 0 48.18 0 73 0 C73 0.33 73 0.66 73 1 C71.02 1 69.04 1 67 1 C66.67 1.66 66.34 2.32 66 3 C64.84488167 2.98667633 64.84488167 2.98667633 63.66642761 2.9730835 C56.4123386 2.89296513 49.15846381 2.83205017 41.90404797 2.79275131 C38.17436552 2.77186808 34.44504836 2.74353818 30.71557617 2.69824219 C27.11698628 2.65480889 23.51874791 2.63086844 19.91991615 2.62049103 C18.54633359 2.61309497 17.17277046 2.598652 15.79933739 2.57707977 C13.87707629 2.54808558 11.95446212 2.54636645 10.03198242 2.54589844 C8.93722092 2.53701599 7.84245941 2.52813354 6.71452332 2.51898193 C3.9010346 2.75113283 3.9010346 2.75113283 2.16596985 4.82525635 C0.72056782 7.52119131 0.34341711 9.97792941 0 13 C-0.66 13 -1.32 13 -2 13 C-2 15.31 -2 17.62 -2 20 C-2.99 20 -3.98 20 -5 20 C-5 21.32 -5 22.64 -5 24 C-5.99 24.33 -6.98 24.66 -8 25 C-5.56324176 16.58030691 -2.77539624 8.32618873 0 0 Z " fill="#254086" transform="translate(310,137)"/>
<path d="M0 0 C0.66 0.66 1.32 1.32 2 2 C4.74350024 2.31572279 4.74350024 2.31572279 8.01101685 2.2784729 C9.29271759 2.28963638 10.57441833 2.30079987 11.8949585 2.31230164 C13.32336397 2.31466684 14.75176976 2.31684244 16.18017578 2.31884766 C17.67799423 2.32814154 19.17580747 2.3383094 20.6736145 2.34928894 C24.74773523 2.37666396 28.82182125 2.39176046 32.89600992 2.40471697 C37.15083724 2.42031481 41.4055933 2.44711562 45.66036987 2.4727478 C53.7209507 2.51959504 61.78154485 2.5563103 69.84219253 2.58942068 C79.0174408 2.62760015 88.19261761 2.67702118 97.36780572 2.72740483 C116.24515157 2.83081307 135.12254099 2.92004446 154 3 C154 3.33 154 3.66 154 4 C102.19 4 50.38 4 -3 4 C-2.34 3.67 -1.68 3.34 -1 3 C-0.67 2.01 -0.34 1.02 0 0 Z " fill="#293E7A" transform="translate(229,384)"/>
<path d="M0 0 C0.68318802 -0.00014603 1.36637604 -0.00029205 2.07026672 -0.0004425 C4.32658065 0.0002537 6.58281184 0.00803243 8.83911133 0.01586914 C10.40424047 0.01773436 11.96937019 0.01915777 13.53450012 0.02015686 C17.65267551 0.02397387 21.7708156 0.03379721 25.88897705 0.04486084 C30.09175133 0.05509248 34.29453131 0.05965824 38.49731445 0.06469727 C46.74277336 0.0754202 54.98820358 0.09248685 63.23364258 0.11352539 C62.90364258 1.43352539 62.57364258 2.75352539 62.23364258 4.11352539 C61.24364258 3.61852539 61.24364258 3.61852539 60.23364258 3.11352539 C58.24911291 3.01695906 56.26129126 2.98556093 54.27441406 2.98413086 C53.02228622 2.9809787 51.77015839 2.97782654 50.48008728 2.97457886 C49.10496994 2.97637006 47.72985292 2.97842136 46.35473633 2.98071289 C44.94425947 2.98003906 43.53378273 2.97906837 42.12330627 2.97781372 C39.15999247 2.97633712 36.19670875 2.97848784 33.23339844 2.9831543 C29.45653821 2.98881509 25.67974963 2.98559571 21.90289211 2.97958183 C18.98502579 2.9759439 16.06717602 2.97713019 13.14930916 2.97970963 C11.75841323 2.98037189 10.36751574 2.97957525 8.97662163 2.97723007 C1.64632105 2.96759391 -5.49989613 3.1139589 -12.76635742 4.11352539 C-8.92457435 -0.09414178 -5.51906584 -0.00990856 0 0 Z " fill="#254185" transform="translate(27.766357421875,136.886474609375)"/>
<path d="M0 0 C35.64 0 71.28 0 108 0 C104 16 104 16 102 23 C101.01 22.01 101.01 22.01 100 21 C100.375 17.875 100.375 17.875 101 15 C101.66 15 102.32 15 103 15 C103.144375 13.80375 103.28875 12.6075 103.4375 11.375 C103.85841518 7.88741707 104.420713 4.47572202 105 1 C54.015 1.495 54.015 1.495 2 2 C1.67 2.66 1.34 3.32 1 4 C0.67 2.68 0.34 1.36 0 0 Z " fill="#273F7D" transform="translate(143,137)"/>
<path d="M0 0 C1.89671385 3.54525953 3.25664542 7.22302128 4.625 11 C5.07101563 12.216875 5.51703125 13.43375 5.9765625 14.6875 C7 18 7 18 7 22 C-28.64 22 -64.28 22 -101 22 C-101 21.67 -101 21.34 -101 21 C-99.69930069 20.98969254 -98.39860138 20.97938507 -97.05848694 20.96876526 C-84.82963276 20.87121467 -72.60083156 20.7684985 -60.37206364 20.66066074 C-54.08440509 20.60538163 -47.79674195 20.5519538 -41.5090332 20.50268555 C-35.4465814 20.45511539 -29.38418818 20.40277553 -23.32180595 20.34705925 C-21.00325406 20.32660228 -18.68468608 20.30789487 -16.36610603 20.29092598 C-13.13081134 20.26695569 -9.89562856 20.23689142 -6.66040039 20.20532227 C-5.69151886 20.1995668 -4.72263733 20.19381134 -3.72439575 20.18788147 C-2.40972572 20.17319824 -2.40972572 20.17319824 -1.0684967 20.15821838 C0.08051825 20.14853956 0.08051825 20.14853956 1.25274563 20.1386652 C3.02840014 20.18791623 3.02840014 20.18791623 4 19 C3.54738642 17.56068883 3.08767021 16.12361001 2.625 14.6875 C2.36976563 13.88699219 2.11453125 13.08648437 1.8515625 12.26171875 C1.01168189 9.77275472 1.01168189 9.77275472 -1 7 C-0.625 3.3125 -0.625 3.3125 0 0 Z " fill="#293E7A" transform="translate(165,366)"/>
<path d="M0 0 C0.99 0 1.98 0 3 0 C3.33 0.99 3.66 1.98 4 3 C4.33 2.01 4.66 1.02 5 0 C7.6956681 0.98841164 8.81623311 1.69372185 10.3125 4.1875 C11.46695007 8.9102503 10.29082214 13.38992094 9 18 C9.66 18 10.32 18 11 18 C11.33 15.36 11.66 12.72 12 10 C12.66 10.66 13.32 11.32 14 12 C12.68 16.29 11.36 20.58 10 25 C9.34 25 8.68 25 8 25 C5.36 16.75 2.72 8.5 0 0 Z " fill="#1D4390" transform="translate(190,281)"/>
<path d="M0 0 C0.33 0.99 0.66 1.98 1 3 C33.67 3.33 66.34 3.66 100 4 C100 4.33 100 4.66 100 5 C49.51 5.495 49.51 5.495 -2 6 C-1 1 -1 1 0 0 Z " fill="#24408A" transform="translate(63,382)"/>
<path d="M0 0 C2 0 4 0 6 0 C4.3186083 6.48707154 2.46937673 12.7677635 0 19 C-2.18614424 16.81385576 -2.68256535 15.46120051 -3.625 12.5625 C-3.88539062 11.78003906 -4.14578125 10.99757813 -4.4140625 10.19140625 C-5 8 -5 8 -5 5 C-4.34 5 -3.68 5 -3 5 C-2.5359375 4.0409375 -2.5359375 4.0409375 -2.0625 3.0625 C-1 1 -1 1 0 0 Z " fill="#254798" transform="translate(36,288)"/>
<path d="M0 0 C2.90243583 5.22438449 3.22231458 9.16005255 2 15 C4.51083114 13.74458443 4.87125446 12.49936512 6 10 C6 11.32 6 12.64 6 14 C6.66 14 7.32 14 8 14 C8.33 13.34 8.66 12.68 9 12 C9 12.99 9 13.98 9 15 C7.68 15 6.36 15 5 15 C5.31710938 15.53109375 5.63421875 16.0621875 5.9609375 16.609375 C7.2370349 19.54535848 7.41707021 22.06174329 7.625 25.25 C7.69976562 26.32765625 7.77453125 27.4053125 7.8515625 28.515625 C7.92503906 29.74539062 7.92503906 29.74539062 8 31 C7.34 31 6.68 31 6 31 C4.46700079 26.71258034 2.95067601 22.41945196 1.4375 18.125 C0.78104492 16.29001953 0.78104492 16.29001953 0.11132812 14.41796875 C-0.29794922 13.25136719 -0.70722656 12.08476562 -1.12890625 10.8828125 C-1.51119385 9.80402832 -1.89348145 8.72524414 -2.28735352 7.61376953 C-3 5 -3 5 -2 3 C-1.34 3.33 -0.68 3.66 0 4 C0 2.68 0 1.36 0 0 Z " fill="#2F4D95" transform="translate(149,145)"/>
<path d="M0 0 C0.33 0 0.66 0 1 0 C1.17233734 5.08395156 1.00979202 8.31048528 -1 13 C-1.7586374 16.31647568 -2.38917245 19.65344483 -3 23 C-3.66 23 -4.32 23 -5 23 C-5.0825 23.94875 -5.165 24.8975 -5.25 25.875 C-5.4975 26.90625 -5.745 27.9375 -6 29 C-8.046875 30.1953125 -8.046875 30.1953125 -10 31 C-7.92028538 23.90563736 -5.66940941 16.88176199 -3.3125 9.875 C-2.83200195 8.44027344 -2.83200195 8.44027344 -2.34179688 6.9765625 C-1.56258967 4.65057084 -0.78197326 2.32506289 0 0 Z " fill="#2C4786" transform="translate(104,259)"/>
<path d="M0 0 C0.66 0 1.32 0 2 0 C0.56220082 7.0219788 -1.40681968 13.75016167 -3.625 20.5625 C-3.94984375 21.57119141 -4.2746875 22.57988281 -4.609375 23.61914062 C-5.40264698 26.08061692 -6.19958143 28.5408403 -7 31 C-7.33 31 -7.66 31 -8 31 C-7.85764543 29.27054347 -7.71095618 27.54144346 -7.5625 25.8125 C-7.48128906 24.84957031 -7.40007812 23.88664062 -7.31640625 22.89453125 C-7.02333849 20.21350398 -6.57296246 17.6337014 -6 15 C-5.34 15 -4.68 15 -4 15 C-4.2475 14.484375 -4.495 13.96875 -4.75 13.4375 C-5.08568082 10.16461196 -3.68448905 8.39711175 -1.9921875 5.68359375 C-0.8996878 3.82978521 -0.33978544 2.12365901 0 0 Z " fill="#304C8E" transform="translate(242,161)"/>
<path d="M0 0 C0.66 0.33 1.32 0.66 2 1 C1.33333333 5 0.66666667 9 0 13 C-0.66 13 -1.32 13 -2 13 C-2 15.31 -2 17.62 -2 20 C-2.99 20 -3.98 20 -5 20 C-5 21.32 -5 22.64 -5 24 C-5.99 24.33 -6.98 24.66 -8 25 C-5.56541729 16.58782396 -2.79856214 8.29613284 0 0 Z " fill="#334B8D" transform="translate(310,137)"/>
<path d="M0 0 C0.66 0 1.32 0 2 0 C0.51654788 8.52984971 -1.03740657 16.2114543 -5 24 C-5.66 24 -6.32 24 -7 24 C-5.65647958 18.42501808 -4.11510411 12.96311757 -2.375 7.5 C-2.14554688 6.77296875 -1.91609375 6.0459375 -1.6796875 5.296875 C-1.12191002 3.53057965 -0.56126223 1.76519112 0 0 Z " fill="#2A4488" transform="translate(240,344)"/>
<path d="M0 0 C2.29633824 3.44450737 2.54016485 5.93812283 3 10 C3.99 9.67 4.98 9.34 6 9 C6.06058594 9.56847656 6.12117188 10.13695312 6.18359375 10.72265625 C6.70176573 15.49781037 7.29243859 20.2492305 8 25 C5.44226476 22.75148083 4.38681947 20.8877065 3.359375 17.65625 C3.09382813 16.82222656 2.82828125 15.98820312 2.5546875 15.12890625 C2.15636719 13.82759766 2.15636719 13.82759766 1.75 12.5 C1.46898437 11.63246094 1.18796875 10.76492188 0.8984375 9.87109375 C-1.12743166 3.38229499 -1.12743166 3.38229499 0 0 Z " fill="#2E478A" transform="translate(23,263)"/>
<path d="M0 0 C0.33 0 0.66 0 1 0 C0.43240789 7.00509246 -1.04653541 13.3410589 -3.0625 20.0625 C-3.34416016 21.02349609 -3.62582031 21.98449219 -3.91601562 22.97460938 C-4.60401284 25.31846429 -5.2987601 27.66007993 -6 30 C-6.33 30 -6.66 30 -7 30 C-6.50348532 23.94252094 -5.38355668 18.49762314 -3.69921875 12.6640625 C-2.76678803 9.11144938 -2.34459889 5.65274822 -2 2 C-1.34 2 -0.68 2 0 2 C0 1.34 0 0.68 0 0 Z " fill="#2E4689" transform="translate(221,228)"/>
<path d="M0 0 C3.63 0 7.26 0 11 0 C10.37650642 2.52121432 9.75124639 5.04196931 9.125 7.5625 C8.95097656 8.26697266 8.77695313 8.97144531 8.59765625 9.69726562 C7.48705185 14.16024998 6.28798784 18.58487052 5 23 C4.34 22.34 3.68 21.68 3 21 C3.375 17.875 3.375 17.875 4 15 C4.66 15 5.32 15 6 15 C6.2165625 13.205625 6.2165625 13.205625 6.4375 11.375 C6.87039343 7.8994842 7.39616256 4.45049966 8 1 C5.36 1 2.72 1 0 1 C0 0.67 0 0.34 0 0 Z " fill="#27427A" transform="translate(240,137)"/>
<path d="M0 0 C1.12018319 3.36054957 0.90181274 4.01723271 -0.21484375 7.23046875 C-0.48876953 8.03291016 -0.76269531 8.83535156 -1.04492188 9.66210938 C-1.48674805 10.91217773 -1.48674805 10.91217773 -1.9375 12.1875 C-2.22818359 13.03248047 -2.51886719 13.87746094 -2.81835938 14.74804688 C-3.53757537 16.83495229 -4.2650343 18.91859994 -5 21 C-5.94242204 17.34308028 -6.6510457 13.7687064 -7 10 C-6.34 9.34 -5.68 8.68 -5 8 C-4.01 8 -3.02 8 -2 8 C-2.04125 7.05125 -2.0825 6.1025 -2.125 5.125 C-2 2 -2 2 0 0 Z " fill="#E8F4FC" transform="translate(296,175)"/>
<path d="M0 0 C0.99 0.99 1.98 1.98 3 3 C-1.03240741 15.71759259 -1.03240741 15.71759259 -6 20 C-4 13.33333333 -2 6.66666667 0 0 Z " fill="#334B98" transform="translate(267,264)"/>
<path d="M0 0 C0 0.66 0 1.32 0 2 C-0.99 2.495 -0.99 2.495 -2 3 C-2.33 3.99 -2.66 4.98 -3 6 C-3.66 6 -4.32 6 -5 6 C-5.33 7.32 -5.66 8.64 -6 10 C-6.66 10 -7.32 10 -8 10 C-8 9.34 -8 8.68 -8 8 C-8.66 8 -9.32 8 -10 8 C-9.67 6.02 -9.34 4.04 -9 2 C-8.01 2.33 -7.02 2.66 -6 3 C-5.566875 2.505 -5.13375 2.01 -4.6875 1.5 C-3 0 -3 0 0 0 Z " fill="#EAF1F6" transform="translate(10,144)"/>
<path d="M0 0 C1.32 0.66 2.64 1.32 4 2 C3.72285156 2.51949219 3.44570312 3.03898437 3.16015625 3.57421875 C0.83873584 8.02172208 0.83873584 8.02172208 -0.5625 12.8125 C-1.0877893 15.43894651 -1.88788882 16.3947955 -4 18 C-4.66 18 -5.32 18 -6 18 C-6 17.34 -6 16.68 -6 16 C-5.34 16 -4.68 16 -4 16 C-2.68 10.72 -1.36 5.44 0 0 Z " fill="#DAE5EF" transform="translate(204,290)"/>
<path d="M0 0 C0.66 0 1.32 0 2 0 C2.268125 0.86625 2.53625 1.7325 2.8125 2.625 C3.90472586 6.0120801 3.90472586 6.0120801 5.625 9 C7.12516854 12.273095 7.25397192 14.44439305 7 18 C6.34 18 5.68 18 5 18 C4.15875684 15.75267898 3.32685168 13.50261215 2.5 11.25 C2.26152344 10.61578125 2.02304688 9.9815625 1.77734375 9.328125 C0.55198242 5.96713393 0 3.63128413 0 0 Z " fill="#334E8F" transform="translate(158,182)"/>
<path d="M0 0 C0.66 0.33 1.32 0.66 2 1 C1.71125 1.9075 1.4225 2.815 1.125 3.75 C-0.40976302 9.0668576 -1.15716972 14.53953576 -2 20 C-4.9765625 17.3359375 -4.9765625 17.3359375 -5.1875 14.3125 C-5.125625 13.549375 -5.06375 12.78625 -5 12 C-4.34 12 -3.68 12 -3 12 C-2.86722656 11.30132812 -2.73445312 10.60265625 -2.59765625 9.8828125 C-2.42105469 8.97273437 -2.24445313 8.06265625 -2.0625 7.125 C-1.88847656 6.22007812 -1.71445313 5.31515625 -1.53515625 4.3828125 C-1 2 -1 2 0 0 Z " fill="#264293" transform="translate(215,244)"/>
<path d="M0 0 C0.66 0 1.32 0 2 0 C5.37191712 5.05787568 6.23926553 7.77909633 6 14 C6.99 14.33 7.98 14.66 9 15 C8.67 15.99 8.34 16.98 8 18 C7.34 18 6.68 18 6 18 C4.99600476 15.37646482 3.99665555 12.75132205 3 10.125 C2.57074219 9.00544922 2.57074219 9.00544922 2.1328125 7.86328125 C0 2.2265625 0 2.2265625 0 0 Z " fill="#DBE8F4" transform="translate(118,230)"/>
<path d="M0 0 C1.23734851 4.19948585 1.01530244 7.76373811 0 12 C-1.5 14.25 -1.5 14.25 -3 16 C-3.70514846 18.14733927 -3.70514846 18.14733927 -4 20 C-4.66 20 -5.32 20 -6 20 C-4.63125844 13.04223041 -2.5466871 6.61396893 0 0 Z " fill="#475C9D" transform="translate(286,208)"/>
<path d="M0 0 C1.92408012 3.57842939 3.26050566 7.30281996 4.625 11.125 C5.07101563 12.36507813 5.51703125 13.60515625 5.9765625 14.8828125 C7 18 7 18 7 20 C6.01 19.67 5.02 19.34 4 19 C3.12109375 17.0390625 3.12109375 17.0390625 2.4375 14.625 C1.54987314 11.54588761 0.81775218 9.72662828 -1 7 C-0.625 3.3125 -0.625 3.3125 0 0 Z " fill="#344F8B" transform="translate(165,366)"/>
<path d="M0 0 C2.19398174 2.19398174 2.6546935 2.97856817 3 6 C2.39351421 7.68949614 1.72159424 9.35636866 1 11 C0.63128912 12.65919896 0.28718326 14.3247643 0 16 C-0.33 14.68 -0.66 13.36 -1 12 C-1.66 12 -2.32 12 -3 12 C-2.40075776 7.80530429 -1.42500059 3.99000166 0 0 Z " fill="#39509E" transform="translate(74,346)"/>
<path d="M0 0 C2.2328877 2.2328877 2.36778152 2.91909815 2.75 5.9375 C2.84796875 6.62714844 2.9459375 7.31679688 3.046875 8.02734375 C3 10 3 10 1 13 C0.67 12.34 0.34 11.68 0 11 C-0.99 11 -1.98 11 -3 11 C-2.01 7.37 -1.02 3.74 0 0 Z " fill="#E3ECF2" transform="translate(43,283)"/>
<path d="M0 0 C2.24808254 3.37212381 3.05160443 6.2874961 4.125 10.1875 C4.30675781 10.84169922 4.48851562 11.49589844 4.67578125 12.16992188 C5.12199044 13.77862343 5.56164215 15.38914131 6 17 C4.35 17.33 2.7 17.66 1 18 C0.67 12.06 0.34 6.12 0 0 Z " fill="#395395" transform="translate(129,262)"/>
<path d="M0 0 C0.99 0.33 1.98 0.66 3 1 C1.02 6.94 -0.96 12.88 -3 19 C-3.66 19 -4.32 19 -5 19 C-4.69106068 17.3743193 -4.3777305 15.74947252 -4.0625 14.125 C-3.80146484 12.76761719 -3.80146484 12.76761719 -3.53515625 11.3828125 C-3 9 -3 9 -2 7 C-1.34 7 -0.68 7 0 7 C0 4.69 0 2.38 0 0 Z " fill="#E7F5FD" transform="translate(278,224)"/>
<path d="M0 0 C2.24140708 2.24140708 2.58186939 3.41060174 3.3125 6.4375 C3.51488281 7.21996094 3.71726563 8.00242187 3.92578125 8.80859375 C4 11 4 11 2.54296875 12.78515625 C2.03378906 13.18605469 1.52460938 13.58695312 1 14 C0 13 0 13 -0.09765625 10.05859375 C-0.08605469 8.86363281 -0.07445312 7.66867187 -0.0625 6.4375 C-0.05347656 5.23996094 -0.04445312 4.04242188 -0.03515625 2.80859375 C-0.02355469 1.88175781 -0.01195312 0.95492188 0 0 Z " fill="#35519C" transform="translate(146,312)"/>
<path d="M0 0 C0.66 0.66 1.32 1.32 2 2 C1.828125 4.09375 1.828125 4.09375 1.25 6.5 C1.06953125 7.2940625 0.8890625 8.088125 0.703125 8.90625 C0 11 0 11 -2 13 C-2.66 10.69 -3.32 8.38 -4 6 C-3.01 5.34 -2.02 4.68 -1 4 C-0.27617533 1.94074861 -0.27617533 1.94074861 0 0 Z " fill="#384D8F" transform="translate(37,294)"/>
<path d="M0 0 C0.33 0.66 0.66 1.32 1 2 C1.66 2 2.32 2 3 2 C3.33 1.34 3.66 0.68 4 0 C3.125 3.875 3.125 3.875 2 5 C1.92851801 6.35243917 1.91600546 7.70834367 1.9375 9.0625 C1.958125 10.361875 1.97875 11.66125 2 13 C1.34 12.67 0.68 12.34 0 12 C0 11.34 0 10.68 0 10 C-0.66 10 -1.32 10 -2 10 C-1.46274105 6.62294375 -0.88935377 3.303314 0 0 Z " fill="#2F4991" transform="translate(68,364)"/>
<path d="M0 0 C0.33 0.99 0.66 1.98 1 3 C1.66 3 2.32 3 3 3 C2.34 4.32 1.68 5.64 1 7 C0.34 7 -0.32 7 -1 7 C-1 9.31 -1 11.62 -1 14 C-1.99 13.67 -2.98 13.34 -4 13 C-3.52343588 11.20763933 -3.04366502 9.41613103 -2.5625 7.625 C-2.29566406 6.62726563 -2.02882813 5.62953125 -1.75390625 4.6015625 C-1 2 -1 2 0 0 Z " fill="#354E95" transform="translate(272,250)"/>
<path d="M0 0 C0.66 0 1.32 0 2 0 C1.69255859 1.01320313 1.69255859 1.01320313 1.37890625 2.046875 C1.10949219 2.93890625 0.84007812 3.8309375 0.5625 4.75 C0.29566406 5.63171875 0.02882813 6.5134375 -0.24609375 7.421875 C-0.88468494 9.60565835 -1.46775833 11.78835498 -2 14 C-2.99 14 -3.98 14 -5 14 C-4.28269264 10.76834156 -3.18684926 7.81292078 -1.9375 4.75 C-1.57527344 3.85796875 -1.21304688 2.9659375 -0.83984375 2.046875 C-0.56269531 1.37140625 -0.28554688 0.6959375 0 0 Z " fill="#334F93" transform="translate(50,258)"/>
<path d="M0 0 C0.33 0 0.66 0 1 0 C1.35050464 5.841744 1.16727335 9.8531808 -2 15 C-2.66 15 -3.32 15 -4 15 C-2.9318153 9.88634986 -1.76892524 4.92772031 0 0 Z " fill="#3E5697" transform="translate(248,320)"/>
<path d="M0 0 C0.66 0.66 1.32 1.32 2 2 C0.68 6.29 -0.64 10.58 -2 15 C-2.66 15 -3.32 15 -4 15 C-4.33 13.35 -4.66 11.7 -5 10 C-4.34 10 -3.68 10 -3 10 C-3 9.34 -3 8.68 -3 8 C-2.34 8 -1.68 8 -1 8 C-0.67 5.36 -0.34 2.72 0 0 Z " fill="#3E5094" transform="translate(202,291)"/>
<path d="M0 0 C1.68940926 3.37881853 2.97495631 6.56178497 4.1875 10.125 C4.55230469 11.17945313 4.91710937 12.23390625 5.29296875 13.3203125 C6 16 6 16 5 18 C4.67 16.68 4.34 15.36 4 14 C3.01 14.33 2.02 14.66 1 15 C0.67 10.05 0.34 5.1 0 0 Z " fill="#DFEBFA" transform="translate(184,264)"/>
<path d="M0 0 C0.66 0.66 1.32 1.32 2 2 C1.65372332 7.03585234 0.09996527 11.99587819 -3 16 C-3.66 16 -4.32 16 -5 16 C-3.41078475 10.63904723 -1.81027062 5.29156027 0 0 Z " fill="#DDECFA" transform="translate(88,148)"/>
<path d="M0 0 C1.24025967 4.55746213 1.51111258 8.46666226 0 13 C-0.99 13.33 -1.98 13.66 -3 14 C-4.25955231 10.22134307 -3.48087189 8.96588214 -2.0625 5.3125 C-1.68222656 4.31863281 -1.30195312 3.32476562 -0.91015625 2.30078125 C-0.60980469 1.54152344 -0.30945312 0.78226562 0 0 Z " fill="#E6EEF8" transform="translate(39,296)"/>
<path d="M0 0 C1.3297259 3.71065403 0.68694674 6.41674866 -0.25 10.1875 C-0.50265625 11.25355469 -0.7553125 12.31960937 -1.015625 13.41796875 C-1.34046875 14.27003906 -1.6653125 15.12210938 -2 16 C-2.99 16.33 -3.98 16.66 -5 17 C-1.92482916 5.47835991 -1.92482916 5.47835991 0 0 Z " fill="#3C5390" transform="translate(293,187)"/>
<path d="M0 0 C1.85776765 3.13498292 2.20140476 5.37471432 2 9 C1.01 9 0.02 9 -1 9 C-1 10.32 -1 11.64 -1 13 C-1.99 13.33 -2.98 13.66 -4 14 C-3.79503906 13.32453125 -3.59007812 12.6490625 -3.37890625 11.953125 C-3.10949219 11.06109375 -2.84007812 10.1690625 -2.5625 9.25 C-2.16224609 7.92742187 -2.16224609 7.92742187 -1.75390625 6.578125 C-1.11531506 4.39434165 -0.53224167 2.21164502 0 0 Z " fill="#44589D" transform="translate(306,148)"/>
<path d="M0 0 C0.33 0 0.66 0 1 0 C0.91245449 1.75091019 0.80426627 3.50079551 0.6875 5.25 C0.62949219 6.22453125 0.57148437 7.1990625 0.51171875 8.203125 C-0.04636524 11.25341611 -0.96369776 12.70711276 -3 15 C-4.28497537 11.14507389 -3.4052209 9.59653164 -2.0625 5.8125 C-1.68222656 4.72582031 -1.30195312 3.63914062 -0.91015625 2.51953125 C-0.60980469 1.68808594 -0.30945313 0.85664063 0 0 Z " fill="#3D5494" transform="translate(88,306)"/>
<path d="M0 0 C0.33 1.32 0.66 2.64 1 4 C1.99 4 2.98 4 4 4 C3.67 7.3 3.34 10.6 3 14 C2.67 14 2.34 14 2 14 C1.46658816 12.42085985 0.94874237 10.83645613 0.4375 9.25 C0.14746094 8.36828125 -0.14257812 7.4865625 -0.44140625 6.578125 C-1.01697435 3.92165684 -0.89248371 2.52968894 0 0 Z " fill="#374D99" transform="translate(10,220)"/>
<path d="M0 0 C2.00293347 3.00440021 2.49271626 4.70993945 3.125 8.1875 C3.37636719 9.53908203 3.37636719 9.53908203 3.6328125 10.91796875 C3.75398438 11.60503906 3.87515625 12.29210937 4 13 C2.68 13 1.36 13 0 13 C0 8.71 0 4.42 0 0 Z " fill="#DEEBF7" transform="translate(27,282)"/>
<path d="M0 0 C0.66 0 1.32 0 2 0 C2.5345256 1.24420647 3.05208611 2.49570936 3.5625 3.75 C3.85253906 4.44609375 4.14257812 5.1421875 4.44140625 5.859375 C5.07831803 8.30012784 4.80248831 9.6403655 4 12 C2.35173889 9.03312999 1.55728913 6.34373475 1 3 C0.34 3 -0.32 3 -1 3 C-0.67 2.01 -0.34 1.02 0 0 Z " fill="#415A98" transform="translate(134,280)"/>
<path d="M0 0 C0.66 0 1.32 0 2 0 C1.71640113 1.4391134 1.42278601 2.87625518 1.125 4.3125 C0.88136719 5.51326172 0.88136719 5.51326172 0.6328125 6.73828125 C0 9 0 9 -2 12 C-3.00724314 8.97827058 -3.30681401 7.14484365 -3 4 C-1.625 1.6875 -1.625 1.6875 0 0 Z " fill="#EBF6FD" transform="translate(70,352)"/>
<path d="M0 0 C1.32 0 2.64 0 4 0 C4.9765625 6.0546875 4.9765625 6.0546875 5 8 C4.34 8.66 3.68 9.32 3 10 C2.01 6.7 1.02 3.4 0 0 Z " fill="#234086" transform="translate(177,240)"/>
<path d="M0 0 C2.49505962 2.49505962 2.35948376 3.67328888 2.625 7.125 C2.69976562 8.03507813 2.77453125 8.94515625 2.8515625 9.8828125 C2.90054688 10.58148438 2.94953125 11.28015625 3 12 C2.67 12 2.34 12 2 12 C1.87625 11.195625 1.7525 10.39125 1.625 9.5625 C1.41875 8.716875 1.2125 7.87125 1 7 C0.34 6.67 -0.32 6.34 -1 6 C-1.33 6.99 -1.66 7.98 -2 9 C-2.33 8.34 -2.66 7.68 -3 7 C-2.06421005 4.64018187 -1.06652192 2.30368736 0 0 Z " fill="#435694" transform="translate(116,226)"/>
<path d="M0 0 C0.66 0.66 1.32 1.32 2 2 C1.6730244 4.61580479 1.17960932 6.64078137 0 9 C-0.99 8.67 -1.98 8.34 -3 8 C-2.34 8 -1.68 8 -1 8 C-1 7.01 -1 6.02 -1 5 C-1.66 4.67 -2.32 4.34 -3 4 C-2.67 3.01 -2.34 2.02 -2 1 C-1.34 0.67 -0.68 0.34 0 0 Z " fill="#18438F" transform="translate(188,256)"/>
<path d="M0 0 C0.33 0.99 0.66 1.98 1 3 C3.01508358 3.73323796 3.01508358 3.73323796 5 4 C4.67 5.32 4.34 6.64 4 8 C3.01 8 2.02 8 1 8 C-1.125 3.375 -1.125 3.375 0 0 Z " fill="#2C4CA4" transform="translate(276,237)"/>
<path d="M0 0 C0.99 0.33 1.98 0.66 3 1 C3 3.64 3 6.28 3 9 C2.01 9 1.02 9 0 9 C-0.66 6.69 -1.32 4.38 -2 2 C-1.34 2 -0.68 2 0 2 C0 1.34 0 0.68 0 0 Z " fill="#25458E" transform="translate(171,215)"/>
<path d="M0 0 C0.66 0.33 1.32 0.66 2 1 C1.71872579 2.48117801 1.42466268 3.95993249 1.125 5.4375 C0.96257812 6.26121094 0.80015625 7.08492187 0.6328125 7.93359375 C0.42398438 8.61550781 0.21515625 9.29742187 0 10 C-0.99 10.495 -0.99 10.495 -2 11 C-2.28571429 3.57142857 -2.28571429 3.57142857 0 0 Z " fill="#344F8E" transform="translate(226,212)"/>
<path d="M0 0 C0.66 0 1.32 0 2 0 C1.68817931 1.41681634 1.37551263 2.83344651 1.0625 4.25 C0.88847656 5.03890625 0.71445313 5.8278125 0.53515625 6.640625 C0.052444 8.76878703 -0.46163178 10.88532842 -1 13 C-1.66 13 -2.32 13 -3 13 C-2.45144652 8.428721 -1.58255197 4.32564205 0 0 Z " fill="#415A94" transform="translate(242,161)"/>
<path d="M0 0 C0.66 0.33 1.32 0.66 2 1 C2 3.31 2 5.62 2 8 C0.35 8.66 -1.3 9.32 -3 10 C-2.01 6.7 -1.02 3.4 0 0 Z " fill="#DEE8F6" transform="translate(51,260)"/>
<path d="M0 0 C0.66 0 1.32 0 2 0 C1.69128878 1.79232337 1.37790936 3.58384321 1.0625 5.375 C0.88847656 6.37273437 0.71445312 7.37046875 0.53515625 8.3984375 C0 11 0 11 -1 13 C-1.66 13 -2.32 13 -3 13 C-2.17812739 8.61667943 -1.09845718 4.32059823 0 0 Z " fill="#254285" transform="translate(53,245)"/>
<path d="M0 0 C0.99 0 1.98 0 3 0 C3.74926071 3.66305234 4.2380014 6.42355152 3 10 C1.11608215 6.73454239 0.50712033 3.71888239 0 0 Z " fill="#334B8E" transform="translate(17,246)"/>
<path d="M0 0 C0.66 0.33 1.32 0.66 2 1 C1.01 3.97 0.02 6.94 -1 10 C-1.99 9.34 -2.98 8.68 -4 8 C-3.50168276 4.31245243 -2.89932357 2.39509338 0 0 Z " fill="#E9F2FC" transform="translate(309,136)"/>
<path d="M0 0 C-3.25852365 2.1723491 -6.59244728 4.07119658 -10 6 C-9.67 4.35 -9.34 2.7 -9 1 C-5.8035914 -0.06546953 -3.34252724 -0.07427838 0 0 Z " fill="#DFEDFA" transform="translate(21,137)"/>
<path d="M0 0 C0.66 0 1.32 0 2 0 C1.71758359 1.46015291 1.42373386 2.91809793 1.125 4.375 C0.96257812 5.18710937 0.80015625 5.99921875 0.6328125 6.8359375 C0 9 0 9 -2 11 C-2.25 3.375 -2.25 3.375 0 0 Z " fill="#DCEBF6" transform="translate(66,365)"/>
<path d="M0 0 C0.66 0 1.32 0 2 0 C2 2.97 2 5.94 2 9 C1.34 9 0.68 9 0 9 C0 8.34 0 7.68 0 7 C-0.66 7 -1.32 7 -2 7 C-1.125 1.125 -1.125 1.125 0 0 Z " fill="#27408E" transform="translate(244,335)"/>
<path d="M0 0 C0.99 0 1.98 0 3 0 C2.01 3.3 1.02 6.6 0 10 C-0.33 10 -0.66 10 -1 10 C-1.125 2.25 -1.125 2.25 0 0 Z " fill="#D0E0F0" transform="translate(262,272)"/>
<path d="M0 0 C0.66 0.99 1.32 1.98 2 3 C1.67 3.33 1.34 3.66 1 4 C0.95919217 5.99958364 0.95745644 8.00045254 1 10 C-0.98 10.99 -0.98 10.99 -3 12 C-2.40075776 7.80530429 -1.42500059 3.99000166 0 0 Z " fill="#E0EDFB" transform="translate(61,230)"/>
<path d="M0 0 C1.53166168 4.08443115 0.63081652 7.79455657 0 12 C-0.99 12.33 -1.98 12.66 -3 13 C-2.45144652 8.428721 -1.58255197 4.32564205 0 0 Z " fill="#C9D9ED" transform="translate(72,195)"/>
<path d="M0 0 C0.28875 0.639375 0.5775 1.27875 0.875 1.9375 C1.82823451 4.15206079 1.82823451 4.15206079 4 5 C3.34 7.64 2.68 10.28 2 13 C0 11 0 11 -0.1953125 8.3984375 C-0.17210937 7.40070313 -0.14890625 6.40296875 -0.125 5.375 C-0.10695312 4.37210938 -0.08890625 3.36921875 -0.0703125 2.3359375 C-0.04710937 1.56507813 -0.02390625 0.79421875 0 0 Z " fill="#23418E" transform="translate(156,168)"/>
<path d="M0 0 C0.66 0 1.32 0 2 0 C2.38909985 1.45463481 2.76088029 2.91391207 3.125 4.375 C3.33382812 5.18710937 3.54265625 5.99921875 3.7578125 6.8359375 C3.83773437 7.55007813 3.91765625 8.26421875 4 9 C3.34 9.66 2.68 10.32 2 11 C1.34 7.37 0.68 3.74 0 0 Z " fill="#264287" transform="translate(160,356)"/>
<path d="M0 0 C0.99 0.33 1.98 0.66 3 1 C2.01 4.3 1.02 7.6 0 11 C-0.66 11 -1.32 11 -2 11 C-1.40049704 7.31733897 -0.75241109 3.65456815 0 0 Z " fill="#DEEBF8" transform="translate(258,283)"/>
<path d="M0 0 C0.99 0.33 1.98 0.66 3 1 C1.515 6.445 1.515 6.445 0 12 C-0.66 11.01 -1.32 10.02 -2 9 C-1.67 8.67 -1.34 8.34 -1 8 C-0.76924918 6.65252916 -0.58846937 5.29622435 -0.4375 3.9375 C-0.293125 2.638125 -0.14875 1.33875 0 0 Z " fill="#314A91" transform="translate(76,174)"/>
<path d="M0 0 C1.32 0.66 2.64 1.32 4 2 C3.01 3.98 2.02 5.96 1 8 C0.34 8 -0.32 8 -1 8 C-0.67 5.36 -0.34 2.72 0 0 Z " fill="#E8EFF9" transform="translate(204,290)"/>
<path d="M0 0 C1.2077558 3.62326739 0.54311128 4.64146369 -1 8 C-3.35953094 5.64046906 -3.49141413 4.22104383 -4 1 C-2.68 0.67 -1.36 0.34 0 0 Z " fill="#314F9C" transform="translate(190,268)"/>
<path d="M0 0 C0.33 0 0.66 0 1 0 C1.25 7.625 1.25 7.625 -1 11 C-1.66 11 -2.32 11 -3 11 C-2.01 7.37 -1.02 3.74 0 0 Z " fill="#4C609D" transform="translate(104,259)"/>
<path d="M0 0 C1 2 1 2 0.22265625 4.6015625 C-0.16019531 5.59929687 -0.54304688 6.59703125 -0.9375 7.625 C-1.50791016 9.12933594 -1.50791016 9.12933594 -2.08984375 10.6640625 C-2.39019531 11.43492187 -2.69054687 12.20578125 -3 13 C-5 10 -5 10 -4.609375 8.02734375 C-4.32578125 7.33769531 -4.0421875 6.64804687 -3.75 5.9375 C-3.47671875 5.24527344 -3.2034375 4.55304688 -2.921875 3.83984375 C-2 2 -2 2 0 0 Z " fill="#D9EAF6" transform="translate(270,254)"/>
<path d="M0 0 C1.4606285 2.64738916 2 3.89448334 2 7 C0 8.6875 0 8.6875 -2 10 C-1.46274105 6.62294375 -0.88935377 3.303314 0 0 Z " fill="#D8E5F5" transform="translate(218,244)"/>
<path d="M0 0 C0.66 0 1.32 0 2 0 C1.67 2.64 1.34 5.28 1 8 C0.01 8 -0.98 8 -2 8 C-1.34 5.36 -0.68 2.72 0 0 Z " fill="#3D5595" transform="translate(301,163)"/>
<path d="M0 0 C0.66 0.33 1.32 0.66 2 1 C0.515 6.445 0.515 6.445 -1 12 C-1.66 11.34 -2.32 10.68 -3 10 C-2.625 6.875 -2.625 6.875 -2 4 C-1.34 4 -0.68 4 0 4 C0 2.68 0 1.36 0 0 Z " fill="#324F8A" transform="translate(246,148)"/>
<path d="M0 0 C1.46726798 3.81489674 0.43336419 6.29011622 -1 10 C-1.66 9.34 -2.32 8.68 -3 8 C-2.54545455 2.54545455 -2.54545455 2.54545455 0 0 Z " fill="#335189" transform="translate(86,150)"/>
<path d="M0 0 C1.98 0.495 1.98 0.495 4 1 C3.6875 3.375 3.6875 3.375 3 6 C2.01 6.66 1.02 7.32 0 8 C-1.125 2.25 -1.125 2.25 0 0 Z " fill="#2C4C9D" transform="translate(145,139)"/>
<path d="M0 0 C0.33 0 0.66 0 1 0 C1.28571429 7.42857143 1.28571429 7.42857143 -1 11 C-1.66 11 -2.32 11 -3 11 C-2.01 7.37 -1.02 3.74 0 0 Z " fill="#4D619A" transform="translate(82,323)"/>
<path d="M0 0 C0.66 0.33 1.32 0.66 2 1 C1.01 3.97 0.02 6.94 -1 10 C-1.66 9.67 -2.32 9.34 -3 9 C-2.25 2.25 -2.25 2.25 0 0 Z " fill="#EAF5FD" transform="translate(91,293)"/>
<path d="M0 0 C0.66 0.66 1.32 1.32 2 2 C1.7578125 4.1640625 1.7578125 4.1640625 1.125 6.625 C0.92132813 7.44226563 0.71765625 8.25953125 0.5078125 9.1015625 C0.34023437 9.72804688 0.17265625 10.35453125 0 11 C-0.33 11 -0.66 11 -1 11 C-1.125 3.375 -1.125 3.375 0 0 Z " fill="#2B4188" transform="translate(204,281)"/>
<path d="M0 0 C0.66 0 1.32 0 2 0 C2.3125 2.1875 2.3125 2.1875 2 5 C-0.5 7.8125 -0.5 7.8125 -3 10 C-2.01 6.7 -1.02 3.4 0 0 Z " fill="#304889" transform="translate(264,274)"/>
<path d="M0 0 C1.32 0 2.64 0 4 0 C4 0.66 4 1.32 4 2 C3.01 2.495 3.01 2.495 2 3 C1.7834375 3.99 1.7834375 3.99 1.5625 5 C1.376875 5.66 1.19125 6.32 1 7 C0.01 7.33 -0.98 7.66 -2 8 C-1.34 5.36 -0.68 2.72 0 0 Z " fill="#E4EEF9" transform="translate(243,164)"/>
<path d="M0 0 C-0.33 0.66 -0.66 1.32 -1 2 C-3.06640625 2.4140625 -3.06640625 2.4140625 -5.5625 2.625 C-6.38878906 2.69976562 -7.21507812 2.77453125 -8.06640625 2.8515625 C-9.02353516 2.92503906 -9.02353516 2.92503906 -10 3 C-6.81859267 -0.48439851 -4.56758339 -1.41752588 0 0 Z " fill="#3B5490" transform="translate(25,138)"/>
<path d="M0 0 C0.66 0 1.32 0 2 0 C2.29296875 6.0546875 2.29296875 6.0546875 2 8 C1.01 8.66 0.02 9.32 -1 10 C-0.67 6.7 -0.34 3.4 0 0 Z " fill="#233D91" transform="translate(89,305)"/>
<path d="M0 0 C2.29633824 3.44450737 2.54016485 5.93812283 3 10 C2.01 9.67 1.02 9.34 0 9 C0 6.03 0 3.06 0 0 Z " fill="#3E5790" transform="translate(140,294)"/>
<path d="M0 0 C0.66 0 1.32 0 2 0 C4.5393228 3.41831915 5.3636198 5.75776898 5 10 C4.34 10 3.68 10 3 10 C2.01 6.7 1.02 3.4 0 0 Z " fill="#EBF5FE" transform="translate(138,287)"/>
<path d="M0 0 C2.475 0.99 2.475 0.99 5 2 C4.67 3.65 4.34 5.3 4 7 C3.34 7 2.68 7 2 7 C1.34 4.69 0.68 2.38 0 0 Z " fill="#2A469A" transform="translate(192,287)"/>
<path d="M0 0 C0.33 0 0.66 0 1 0 C1 2.64 1 5.28 1 8 C-0.98 8.99 -0.98 8.99 -3 10 C-2.01 6.7 -1.02 3.4 0 0 Z " fill="#4D5FA0" transform="translate(97,280)"/>
<path d="M0 0 C0.66 0.33 1.32 0.66 2 1 C1.01 3.97 0.02 6.94 -1 10 C-3 6 -3 6 -2.1875 3.3125 C-1 1 -1 1 0 0 Z " fill="#E8F3FC" transform="translate(299,165)"/>
<path d="M0 0 C2.95183101 2.95183101 3.08663988 5.95511947 4 10 C3.01 9.67 2.02 9.34 1 9 C0.67 6.03 0.34 3.06 0 0 Z " fill="#40538E" transform="translate(168,376)"/>
<path d="M0 0 C0.33 0 0.66 0 1 0 C1.29296875 6.0546875 1.29296875 6.0546875 1 8 C0.01 8.66 -0.98 9.32 -2 10 C-1.54177532 6.53058454 -1.10868317 3.32604951 0 0 Z " fill="#CDDEF1" transform="translate(207,280)"/>
<path d="M0 0 C2 2 2 2 2.125 5.125 C2.08375 6.07375 2.0425 7.0225 2 8 C1.01 7.67 0.02 7.34 -1 7 C-0.67 4.69 -0.34 2.38 0 0 Z " fill="#374F95" transform="translate(274,243)"/>
<path d="M0 0 C2.5654594 2.5654594 2.54046087 4.47686668 3 8 C2.01 8 1.02 8 0 8 C0 5.36 0 2.72 0 0 Z " fill="#CFDDF3" transform="translate(176,240)"/>
<path d="M0 0 C0.99 0 1.98 0 3 0 C2.01 3.3 1.02 6.6 0 10 C-1.231394 6.30581799 -0.64432764 3.7943739 0 0 Z " fill="#3F5694" transform="translate(55,240)"/>
<path d="M0 0 C0.66 0 1.32 0 2 0 C4.04169485 2.90548882 5 4.40142046 5 8 C4.34 8 3.68 8 3 8 C0.95830515 5.09451118 0 3.59857954 0 0 Z " fill="#24438A" transform="translate(8,216)"/>
<path d="M0 0 C0.99 0.33 1.98 0.66 3 1 C3.33 3.31 3.66 5.62 4 8 C3.34 8 2.68 8 2 8 C1.34 5.36 0.68 2.72 0 0 Z " fill="#475A97" transform="translate(166,208)"/>
<path d="M0 0 C1.13757948 4.55031791 0.4283779 6.63084406 -1 11 C-1.66 11 -2.32 11 -3 11 C-2.01 7.37 -1.02 3.74 0 0 Z " fill="#4A5D9A" transform="translate(298,172)"/>
<path d="M0 0 C0.66 0 1.32 0 2 0 C1.67 2.31 1.34 4.62 1 7 C0.01 7.33 -0.98 7.66 -2 8 C-1.47731534 5.23723823 -0.89130413 2.6739124 0 0 Z " fill="#445A99" transform="translate(240,344)"/>
<path d="M0 0 C1.9451 2.91765 2.45276317 4.62537285 3 8 C2.34 7.67 1.68 7.34 1 7 C1 6.34 1 5.68 1 5 C0.34 5 -0.32 5 -1 5 C-1.33 5.66 -1.66 6.32 -2 7 C-1.125 2.25 -1.125 2.25 0 0 Z " fill="#CDD8EE" transform="translate(171,224)"/>
<path d="M0 0 C0.66 0.33 1.32 0.66 2 1 C1.67 2.65 1.34 4.3 1 6 C0.67 5.34 0.34 4.68 0 4 C-0.99 4 -1.98 4 -3 4 C-3 3.34 -3 2.68 -3 2 C-2.01 1.34 -1.02 0.68 0 0 Z " fill="#F2F3F9" transform="translate(67,218)"/>
<path d="M0 0 C0.99 0.33 1.98 0.66 3 1 C1.75023244 4.65316671 1.32901247 5.78065836 -2 8 C-1.34 5.36 -0.68 2.72 0 0 Z " fill="#CEDEEC" transform="translate(75,186)"/>
<path d="M0 0 C0.99 0 1.98 0 3 0 C2.67 1.98 2.34 3.96 2 6 C0.68 5.34 -0.64 4.68 -2 4 C-1.34 2.68 -0.68 1.36 0 0 Z " fill="#324B96" transform="translate(86,144)"/>
</svg>
