<?xml version="1.0" encoding="UTF-8" standalone="no"?>
<svg
   version="1.1"
   width="320"
   height="120"
   id="svg64"
   sodipodi:docname="GoldLogo.svg"
   inkscape:version="1.3.2 (091e20ef0f, 2023-11-25, custom)"
   xmlns:inkscape="http://www.inkscape.org/namespaces/inkscape"
   xmlns:sodipodi="http://sodipodi.sourceforge.net/DTD/sodipodi-0.dtd"
   xmlns="http://www.w3.org/2000/svg"
   xmlns:svg="http://www.w3.org/2000/svg">
  <defs
     id="defs64">
    <rect
       x="70.130944"
       y="-19.84838"
       width="87.332874"
       height="14.996554"
       id="rect66" />
    <rect
       x="108.94555"
       y="5.9545141"
       width="191.4266"
       height="57.119228"
       id="rect65" />
  </defs>
  <sodipodi:namedview
     id="namedview64"
     pagecolor="#ffffff"
     bordercolor="#000000"
     borderopacity="0.25"
     inkscape:showpageshadow="2"
     inkscape:pageopacity="0.0"
     inkscape:pagecheckerboard="0"
     inkscape:deskcolor="#d1d1d1"
     showgrid="false"
     inkscape:zoom="4.534375"
     inkscape:cx="226.38181"
     inkscape:cy="77.629221"
     inkscape:window-width="1920"
     inkscape:window-height="1008"
     inkscape:window-x="1920"
     inkscape:window-y="0"
     inkscape:window-maximized="1"
     inkscape:current-layer="svg64" />
  <path
     d="m 2.2053756,4.4107481 c 126.9237844,0 253.8475544,0 384.6175044,0 0,39.5999999 0,79.1999999 0,120.0000019 -126.92377,0 -253.84755,0 -384.6175044,0 0,-39.600002 0,-79.200002 0,-120.0000019 z"
     fill="#000000"
     id="path1"
     style="stroke-width:1.09633" />
  <path
     d="m 49.595718,8.2729152 c 2.543924,3.1801448 2.543924,3.1801448 5.139239,6.4245348 5.848149,7.508305 5.848149,7.508305 14.708853,6.424535 0,5.300242 0,10.600482 0,16.061337 2.807087,-1.060049 5.614174,-2.120096 8.506324,-3.212268 0,2.120098 0,4.240194 0,6.424535 4.678478,-1.060047 9.356959,-2.120096 14.177209,-3.212267 -0.935695,6.360289 -1.871392,12.720579 -2.835442,19.273604 1.871392,0 3.742783,0 5.670883,0 0,2.120096 0,4.240193 0,6.424535 -15.344743,12.84907 -15.344743,12.84907 -22.683533,12.84907 0.935696,5.30024 1.871391,10.600482 2.835441,16.061337 -6.54987,-1.060049 -13.09974,-2.120098 -19.84809,-3.212268 0,7.420338 0,14.84068 0,22.48587 -2.807087,0 -5.614175,0 -8.506325,0 -0.935695,-7.42034 -1.871392,-14.840674 -2.835442,-22.48587 -5.614175,0 -11.228349,0 -17.01265,0 -0.116961,-1.855084 -0.233924,-3.710168 -0.35443,-5.621468 C 22.861662,72.190795 15.454374,68.948697 7.0640937,62.881461 c 0,-2.120096 0,-4.240193 0,-6.424535 1.8713916,0 3.7427833,0 5.6708843,0 -0.935697,-6.360289 -1.871392,-12.720579 -2.8354426,-19.273604 4.6784786,1.060048 9.3569576,2.120096 14.1772076,3.212267 0,-2.120096 0,-4.240193 0,-6.424535 1.871392,0 3.742783,0 5.670883,0 0.935697,-4.240193 1.871392,-8.480385 2.835442,-12.849069 3.742784,0 7.485567,0 11.341767,0 1.871392,-4.240192 3.742783,-8.480387 5.670883,-12.8490698 z"
     fill="#bb9a1a"
     id="path3"
     style="stroke-width:3.01797" />
  <path
     d="m 48.028716,22.166782 c 2.038199,2.127625 2.038199,2.127625 4.117576,4.298233 4.685561,5.023312 4.685561,5.023312 11.78479,4.298234 0,3.546042 0,7.092085 0,10.745583 2.249049,-0.709208 4.498098,-1.418417 6.8153,-2.149116 0,1.418417 0,2.836834 0,4.298233 3.748415,-0.709208 7.49683,-1.418417 11.358833,-2.149117 -0.749683,4.255252 -1.499366,8.510503 -2.271767,12.894701 1.499367,0 2.998732,0 4.543533,0 0,1.418417 0,2.836834 0,4.298233 C 80.628566,60.120184 76.880151,61.538601 73.018149,63 74.517514,57.326332 76.01688,51.652663 77.561681,45.807066 71.564218,46.516274 65.566755,47.225483 59.387549,47.956183 58.637866,43.700931 57.888183,39.44568 57.115782,35.061482 c -5.247781,0.709209 -10.495561,1.418417 -15.902366,2.149117 -0.749683,3.546043 -1.499366,7.092085 -2.271767,10.745584 -1.218234,-0.39893 -2.436469,-0.79786 -3.69162,-1.208879 -6.803728,-1.185653 -12.295841,-0.09343 -19.026046,1.208879 0,-2.127626 0,-4.255252 0,-6.447351 5.622623,1.063813 5.622623,1.063813 11.358834,2.149117 0,-1.418417 0,-2.836834 0,-4.298233 1.499365,0 2.998732,0 4.543533,0 0.749683,-2.836835 1.499366,-5.673669 2.271767,-8.596467 2.998731,0 5.997463,0 9.087066,0 1.499365,-2.836835 2.998732,-5.673669 4.543533,-8.596467 z"
     fill="#c8b977"
     id="path8"
     style="stroke-width:2.20959" />
  <path
     d="m 64.69121,65.087526 c 2.374737,1.460552 4.749475,2.921102 7.196175,4.425912 0.44976,6.91549 0.44976,6.91549 0,13.277741 -5.541055,-0.730276 -11.082108,-1.460552 -16.791074,-2.212957 0,5.111929 0,10.22386 0,15.490696 -2.374738,0 -4.749474,0 -7.196174,0 0,-5.842206 0,-11.68441 0,-17.703653 -1.583159,-0.730275 -3.166316,-1.46055 -4.797449,-2.212956 6.332632,-0.730276 12.665265,-1.460552 19.189797,-2.212956 0.791579,-2.921103 1.583158,-5.842207 2.398725,-8.851827 z"
     fill="#b9ab74"
     id="path21"
     style="stroke-width:2.30397" />
  <path
     d="m 48.355351,58.80634 c 2.098456,0 4.196911,0 6.358957,0 0,3.445176 0,6.890351 0,10.439926 2.098455,-0.689035 4.19691,-1.37807 6.358956,-2.087985 0,1.37807 0,2.756141 0,4.175971 3.497427,-0.689035 6.994852,-1.378071 10.598262,-2.087986 -0.699487,4.134211 -1.398972,8.268422 -2.119654,12.527912 1.398972,0 2.797942,0 4.239306,0 0,1.378071 0,2.756141 0,4.175971 -3.497427,1.37807 -6.994853,2.75614 -10.598262,4.17597 1.39897,-5.512281 2.797942,-11.024562 4.239304,-16.703882 -5.595881,0.689035 -11.191763,1.37807 -16.957217,2.087985 -1.39897,-4.823246 -2.79794,-9.646492 -4.239304,-14.615897 0.699485,-0.689035 1.39897,-1.37807 2.119652,-2.087985 z"
     fill="#c9be8b"
     id="path24"
     style="stroke-width:2.10376" />
  <path
     d="m 18.043543,50.707099 c 1.037926,0 2.075853,0 3.14523,0 0,4.505113 0,9.010226 0,13.651858 2.010981,0.619453 4.021961,1.238905 6.093881,1.87713 6.487035,3.583613 6.487035,3.583613 8.452802,10.58019 0.389223,2.196243 0.778445,4.392485 1.179462,6.655282 2.075851,0.901021 4.151701,1.802044 6.290458,2.730371 -4.151704,0 -8.303405,0 -12.580916,0 -0.12974,-1.576789 -0.259483,-3.15358 -0.393154,-4.778151 -4.099911,-9.15205 -12.316485,-11.907777 -21.623449,-17.064822 0,-1.802046 0,-3.60409 0,-5.460744 2.07585,0 4.151702,0 6.290457,0 1.037927,-2.703069 2.075852,-5.406135 3.145229,-8.191114 z"
     fill="#cab979"
     id="path39"
     style="stroke-width:2.93046" />
  <path
     d="M0 0 C2.6875 0.3125 2.6875 0.3125 5 1 C4.67 2.65 4.34 4.3 4 6 C2 6 0 6 -2 6 C-2.33 5.01 -2.66 4.02 -3 3 C-1.8125 1.4375 -1.8125 1.4375 0 0 Z "
     fill="#C1A02A"
     transform="translate(52,58)"
     id="path40" />
  <path
     d="M0 0 C0 -0.66 0 -1.32 0 -2 C0.99 -1.67 1.98 -1.34 3 -1 C2.67 -0.34 2.34 0.32 2 1 C-1.96 1 -5.92 1 -10 1 C-9.67 0.34 -9.34 -0.32 -9 -1 C-5.26793158 -2.21040057 -3.31957615 -2.0901035 0 0 Z "
     fill="#B49A32"
     transform="translate(41,56)"
     id="path61" />
  <text
     xml:space="preserve"
     id="text65"
     style="font-style:normal;font-variant:normal;font-weight:bold;font-stretch:normal;font-size:14.6667px;font-family:'Hack Nerd Font';-inkscape-font-specification:'Hack Nerd Font Bold';white-space:pre;shape-inside:url(#rect66);display:inline;fill:#000000" />
  <text
     xml:space="preserve"
     style="font-style:normal;font-variant:normal;font-weight:bold;font-stretch:normal;font-size:36.5271px;font-family:'Hack Nerd Font';-inkscape-font-specification:'Hack Nerd Font Bold';fill:#6c8ddf;fill-opacity:1;stroke-width:2.89039"
     x="200.07144"
     y="39.090397"
     id="text67"
     transform="scale(0.54232854,1.8439007)"><tspan
       sodipodi:role="line"
       id="tspan67"
       x="200.07144"
       y="39.090397"
       style="font-size:36.5271px;fill:#6c8ddf;fill-opacity:1;stroke-width:2.89039">Wealth Innovations Inc.</tspan></text>
  <text
     xml:space="preserve"
     style="font-style:normal;font-variant:normal;font-weight:bold;font-stretch:normal;font-size:10.6667px;font-family:'Hack Nerd Font';-inkscape-font-specification:'Hack Nerd Font Bold';text-align:center;text-anchor:middle;fill:#6c8ddf;fill-opacity:1;stroke-width:1.54699"
     x="261.49915"
     y="93.641197"
     id="text68"
     transform="scale(0.92867592,1.0768019)"><tspan
       sodipodi:role="line"
       x="261.49915"
       y="93.641197"
       id="tspan69"
       style="font-size:10.6667px;text-align:center;text-anchor:middle;fill:#6c8ddf;fill-opacity:1;stroke-width:1.54699">Your wealth, our innovation. Together we grow.</tspan></text>
</svg>
